
<svg version="1.0"
     xmlns="http://www.w3.org/2000/svg"
     viewBox="0 0 774.000000 204.000000"
     preserveAspectRatio="xMidYMid meet">
    <g transform="translate(0.000000,204.000000) scale(0.100000,-0.100000)"
       fill="#ffffff"
       stroke="none">
<path d="M1995 1963 c-27 -20 -59 -45 -70 -56 -66 -62 -178 -104 -329 -122
-143 -17 -153 -25 -181 -138 -14 -60 -33 -105 -58 -142 -20 -31 -37 -59 -37
-63 0 -4 17 -21 37 -37 20 -17 53 -45 74 -62 20 -18 42 -33 49 -33 7 0 38 12
68 26 68 32 121 49 247 76 142 30 445 31 585 0 106 -23 244 -67 275 -88 11 -8
26 -14 34 -14 17 0 150 106 158 126 3 8 -10 38 -29 67 -31 47 -68 151 -68 194
-1 49 -57 77 -180 88 -138 13 -222 48 -354 149 -75 58 -92 66 -129 66 -32 0
-53 -9 -92 -37z m115 -122 c5 -11 10 -29 10 -40 0 -35 27 -51 86 -51 46 0 54
-3 54 -19 0 -10 -18 -30 -40 -46 -45 -31 -50 -53 -25 -112 8 -19 15 -39 15
-44 0 -18 -33 -8 -70 21 -21 17 -43 30 -48 30 -6 0 -31 -13 -55 -30 -69 -46
-83 -37 -52 37 23 55 19 70 -25 95 -70 41 -65 68 14 68 58 0 71 9 81 55 4 17
8 36 11 43 5 19 32 14 44 -7z"/>
<path d="M1909 1370 c-82 -8 -146 -21 -249 -52 -97 -29 -134 -49 -138 -77 -5
-30 12 -48 30 -34 25 20 203 70 308 87 232 36 520 9 725 -68 58 -22 67 -20 63
11 -4 38 -62 65 -245 113 -102 26 -331 36 -494 20z"/>
<path d="M122 1107 c-27 -7 -55 -25 -73 -45 -25 -28 -29 -40 -29 -90 0 -36 6
-66 15 -78 18 -24 18 -54 0 -78 -23 -31 -20 -127 6 -160 44 -56 54 -57 387
-58 l307 0 0 33 0 34 -294 5 -294 5 -19 26 c-28 37 -17 84 25 110 30 18 52 19
297 19 146 0 270 0 276 0 18 0 26 31 13 46 -9 11 -67 14 -299 14 l-288 0 -22
35 c-23 38 -22 64 5 100 16 20 81 23 598 25 5 0 7 15 5 33 l-3 32 -285 2
c-195 1 -299 -2 -328 -10z"/>
<path d="M934 1105 c-4 -10 4 -23 22 -38 16 -12 56 -47 89 -78 33 -31 79 -73
103 -94 23 -20 42 -43 42 -50 0 -6 -48 -52 -106 -101 -59 -49 -118 -99 -131
-111 -48 -43 8 -61 64 -20 34 24 103 80 172 139 24 21 50 38 58 38 8 0 62 -43
120 -95 58 -52 112 -95 121 -96 10 0 38 -2 64 -5 25 -2 49 0 52 5 4 5 -51 62
-121 126 -71 65 -132 126 -137 137 -7 15 -4 22 15 36 47 33 224 184 232 198
10 18 -14 28 -46 20 -13 -3 -75 -48 -138 -101 -63 -52 -120 -95 -127 -95 -8 0
-61 43 -118 95 -57 52 -109 95 -116 96 -7 0 -34 3 -61 5 -37 4 -48 2 -53 -11z"/>
<path d="M1790 1100 c-22 -41 -5 -50 102 -50 55 0 108 -5 119 -10 18 -10 19
-23 19 -224 0 -230 -2 -224 55 -222 l30 1 3 215 c1 129 6 218 13 225 5 5 60
12 122 15 97 4 112 7 115 23 9 45 -4 48 -294 47 -257 -1 -275 -2 -284 -20z"/>
<path d="M2538 1113 c-12 -3 -18 -14 -18 -33 l0 -29 259 -3 c238 -3 261 -5
280 -22 15 -14 21 -31 21 -62 0 -71 -11 -74 -245 -74 -224 0 -249 -6 -292 -70
-20 -28 -23 -46 -23 -125 l0 -92 29 -6 c63 -13 69 -5 73 99 3 103 12 117 75
130 43 8 74 0 104 -29 13 -12 53 -47 89 -77 36 -30 81 -70 100 -87 19 -18 44
-33 55 -34 77 -4 109 -3 111 6 1 6 -34 42 -78 80 -123 108 -130 115 -125 128
2 7 32 14 78 17 117 8 158 55 146 163 -9 68 -41 101 -114 116 -54 11 -487 14
-525 4z"/>
<path d="M4470 1106 c-6 -8 -10 -23 -8 -33 3 -17 25 -18 300 -23 246 -4 300
-8 312 -20 12 -12 16 -47 17 -174 0 -106 -3 -162 -11 -170 -7 -7 -106 -13
-307 -16 -268 -5 -297 -7 -307 -22 -8 -13 -8 -23 -1 -34 10 -15 44 -17 320
-15 339 2 343 2 389 64 19 26 21 41 21 190 0 186 -7 210 -70 242 -37 18 -63
20 -341 23 -255 2 -303 0 -314 -12z"/>
<path d="M5356 1105 c-13 -14 -16 -43 -16 -187 0 -173 9 -236 39 -272 37 -43
58 -46 329 -46 290 0 315 4 351 63 19 32 21 49 21 234 0 141 -3 202 -12 211
-15 15 -65 16 -74 0 -4 -6 -6 -84 -5 -174 3 -173 -7 -237 -39 -254 -11 -6
-110 -10 -243 -10 -204 0 -225 2 -240 18 -15 16 -17 46 -17 208 0 104 -4 194
-8 200 -13 21 -68 27 -86 9z"/>
<path d="M6240 1105 c-6 -8 -10 -22 -8 -32 3 -16 18 -19 118 -23 l115 -5 5
-220 5 -219 25 -7 c39 -11 47 -10 64 7 14 13 16 48 16 224 0 180 2 209 16 214
9 3 63 6 120 6 l104 0 0 29 c0 21 -6 30 -22 35 -13 3 -141 6 -284 6 -217 0
-264 -2 -274 -15z"/>
<path d="M7004 1108 c-4 -6 35 -49 87 -97 51 -47 116 -107 144 -133 l50 -47 2
-98 c2 -54 3 -105 3 -114 0 -21 54 -33 81 -19 17 10 19 23 19 132 l0 120 38
37 c20 20 59 54 86 76 141 114 165 138 146 150 -24 15 -76 -11 -151 -76 -128
-111 -147 -123 -168 -113 -11 5 -58 45 -106 89 -48 44 -94 84 -102 89 -24 13
-122 16 -129 4z"/>
<path d="M3668 1098 c-14 -12 -91 -127 -236 -353 -24 -38 -53 -82 -63 -97 -24
-35 -24 -45 3 -53 17 -6 30 2 63 39 l43 46 201 0 200 0 40 -41 c41 -43 90 -59
120 -40 14 9 7 21 -260 416 -68 102 -78 109 -111 83z m39 -155 c60 -78 124
-183 118 -193 -8 -12 -302 -14 -309 -1 -5 7 34 72 118 198 11 18 26 33 33 33
6 0 24 -17 40 -37z"/>
<path d="M1595 421 c-40 -18 -75 -63 -75 -96 0 -38 40 -81 104 -115 86 -44
108 -68 104 -111 -5 -56 -37 -64 -182 -46 -34 4 -29 -23 8 -38 79 -33 193 -7
221 51 31 66 -11 126 -126 182 -61 29 -71 43 -67 88 3 33 7 39 43 51 30 10 50
11 79 4 22 -5 43 -8 48 -5 14 9 9 42 -8 48 -31 12 -110 5 -149 -13z"/>
<path d="M2153 422 c-88 -36 -123 -96 -123 -210 0 -70 3 -82 33 -127 51 -77
143 -103 248 -69 65 22 103 69 120 152 23 111 -15 203 -103 248 -56 28 -115
30 -175 6z m122 -33 c74 -20 115 -82 115 -174 0 -95 -47 -159 -125 -171 -134
-20 -211 78 -181 232 11 61 69 110 146 123 3 1 23 -4 45 -10z"/>
<path d="M3753 433 c-7 -3 -13 -13 -13 -24 0 -16 7 -19 44 -19 80 0 76 9 76
-190 0 -180 5 -205 35 -180 12 10 15 46 15 185 0 194 -4 185 76 185 37 0 44 3
44 19 0 11 -8 22 -17 24 -22 6 -243 6 -260 0z"/>
<path d="M4253 423 c-3 -8 2 -22 12 -33 14 -16 17 -41 17 -175 0 -137 -2 -158
-18 -169 -27 -20 -7 -36 46 -36 53 0 73 16 46 36 -15 10 -17 32 -17 169 0 132
3 160 16 176 28 29 14 44 -44 45 -37 1 -54 -3 -58 -13z"/>
<path d="M4725 420 c-92 -43 -119 -90 -120 -205 0 -65 4 -86 22 -115 31 -50
62 -75 109 -88 122 -35 235 21 265 130 18 69 6 163 -28 212 -54 79 -162 108
-248 66z m130 -31 c49 -14 72 -33 92 -79 36 -83 12 -199 -50 -244 -40 -29
-140 -29 -179 -1 -63 46 -86 159 -49 240 22 49 46 70 91 83 47 14 49 14 95 1z"/>
<path d="M5978 420 c-46 -25 -68 -56 -68 -97 0 -44 32 -77 115 -123 39 -21 76
-49 84 -62 20 -34 7 -76 -27 -89 -26 -10 -103 -7 -149 7 -18 5 -23 2 -23 -13
0 -38 110 -55 185 -29 50 18 75 49 75 95 0 47 -38 89 -111 126 -72 36 -99 62
-99 97 0 49 76 77 153 55 21 -6 29 -4 34 9 17 44 -100 60 -169 24z"/>
<path d="M2706 414 c-3 -9 -6 -98 -6 -199 0 -172 1 -185 19 -195 25 -13 201
-13 201 0 0 6 0 13 0 18 0 4 -37 9 -82 12 l-83 5 -3 188 c-2 175 -4 187 -21
187 -10 0 -22 -7 -25 -16z"/>
<path d="M3170 261 c0 -158 1 -170 23 -201 35 -53 122 -74 198 -49 82 28 102
85 97 284 -3 126 -4 130 -25 133 l-23 3 0 -157 c0 -141 -2 -160 -21 -190 -23
-37 -65 -51 -124 -40 -70 13 -95 85 -95 271 0 96 -3 115 -15 115 -13 0 -15
-25 -15 -169z"/>
<path d="M5280 226 c0 -181 2 -205 17 -210 9 -4 20 -1 25 6 4 7 8 81 8 165 0
83 4 154 8 157 5 3 35 -36 68 -87 32 -50 74 -112 92 -137 17 -25 36 -55 42
-68 11 -26 52 -47 74 -39 14 6 16 35 16 212 0 194 -1 205 -19 205 -28 0 -31
-18 -31 -176 0 -112 -3 -144 -13 -144 -7 0 -60 72 -118 160 -99 151 -106 159
-136 160 l-33 0 0 -204z"/>
</g>
</svg>
